<svg xmlns="http://www.w3.org/2000/svg" viewBox="0 0 64 64" fill="none">
  <defs>
    <linearGradient id="paletteGrad" x1="0%" y1="0%" x2="100%" y2="100%">
      <stop offset="0%" style="stop-color:#00f2ff"/>
      <stop offset="100%" style="stop-color:#a855f7"/>
    </linearGradient>
  </defs>
  <path d="M32 8C18.7 8 8 18.7 8 32s10.7 24 24 24c2.2 0 4-1.8 4-4 0-1-.4-2-1-2.7-.6-.7-1-1.6-1-2.7 0-2.2 1.8-4 4-4h4.7c8.8 0 16-7.2 16-16C58.7 17.3 47.3 8 32 8z" stroke="url(#paletteGrad)" stroke-width="3"/>
  <circle cx="20" cy="28" r="4" fill="#00f2ff"/>
  <circle cx="28" cy="18" r="4" fill="#66f7ff"/>
  <circle cx="40" cy="18" r="4" fill="#a855f7"/>
  <circle cx="48" cy="28" r="4" fill="#c084fc"/>
</svg>
